<?xml version="1.0" encoding="UTF-8" standalone="no"?>
<!DOCTYPE svg PUBLIC "-//W3C//DTD SVG 1.1//EN"
 "http://www.w3.org/Graphics/SVG/1.1/DTD/svg11.dtd">
<!-- Generated by graphviz version 2.43.0 (0)
 -->
<!-- Title: sourcetree Pages: 1 -->
<svg width="500pt" height="260pt"
 viewBox="0.00 0.00 500.00 260.00" xmlns="http://www.w3.org/2000/svg" xmlns:xlink="http://www.w3.org/1999/xlink">
<g id="graph0" class="graph" transform="scale(1 1) rotate(0) translate(4 256)">
<title>sourcetree</title>
<polygon fill="white" stroke="transparent" points="-4,4 -4,-256 496,-256 496,4 -4,4"/>
<!-- mulle&#45;objc&#45;runtime&#45;startup -->
<g id="node1" class="node">
<title>mulle&#45;objc&#45;runtime&#45;startup</title>
<polygon fill="yellow" stroke="black" points="392.5,-252 183.5,-252 183.5,-216 392.5,-216 392.5,-252"/>
<text text-anchor="middle" x="288" y="-230.3" font-family="Times,serif" font-size="14.00">mulle&#45;objc&#45;runtime&#45;startup</text>
</g>
<!-- mulle&#45;atinit -->
<g id="node2" class="node">
<title>mulle&#45;atinit</title>
<polygon fill="lightgrey" stroke="black" points="162.5,-180 63.5,-180 63.5,-144 162.5,-144 162.5,-180"/>
<text text-anchor="middle" x="113" y="-158.3" font-family="Times,serif" font-size="14.00">mulle&#45;atinit</text>
</g>
<!-- mulle&#45;objc&#45;runtime&#45;startup&#45;&gt;mulle&#45;atinit -->
<g id="edge9" class="edge">
<title>mulle&#45;objc&#45;runtime&#45;startup&#45;&gt;mulle&#45;atinit</title>
<path fill="none" stroke="black" d="M245.19,-215.88C221.05,-206.22 190.72,-194.09 165.19,-183.88"/>
<polygon fill="black" stroke="black" points="166.26,-180.53 155.67,-180.07 163.66,-187.03 166.26,-180.53"/>
</g>
<!-- mulle&#45;objc&#45;runtime -->
<g id="node9" class="node">
<title>mulle&#45;objc&#45;runtime</title>
<polygon fill="lightgrey" stroke="black" points="364,-180 212,-180 212,-144 364,-144 364,-180"/>
<text text-anchor="middle" x="288" y="-158.3" font-family="Times,serif" font-size="14.00">mulle&#45;objc&#45;runtime</text>
</g>
<!-- mulle&#45;objc&#45;runtime&#45;startup&#45;&gt;mulle&#45;objc&#45;runtime -->
<g id="edge10" class="edge">
<title>mulle&#45;objc&#45;runtime&#45;startup&#45;&gt;mulle&#45;objc&#45;runtime</title>
<path fill="none" stroke="black" d="M288,-215.7C288,-207.98 288,-198.71 288,-190.11"/>
<polygon fill="black" stroke="black" points="291.5,-190.1 288,-180.1 284.5,-190.1 291.5,-190.1"/>
</g>
<!-- mulle&#45;atexit -->
<g id="node11" class="node">
<title>mulle&#45;atexit</title>
<polygon fill="lightgrey" stroke="black" points="484,-180 382,-180 382,-144 484,-144 484,-180"/>
<text text-anchor="middle" x="433" y="-158.3" font-family="Times,serif" font-size="14.00">mulle&#45;atexit</text>
</g>
<!-- mulle&#45;objc&#45;runtime&#45;startup&#45;&gt;mulle&#45;atexit -->
<g id="edge8" class="edge">
<title>mulle&#45;objc&#45;runtime&#45;startup&#45;&gt;mulle&#45;atexit</title>
<path fill="none" stroke="black" d="M323.47,-215.88C343.12,-206.39 367.72,-194.51 388.63,-184.42"/>
<polygon fill="black" stroke="black" points="390.16,-187.57 397.64,-180.07 387.12,-181.26 390.16,-187.57"/>
</g>
<!-- mulle&#45;dlfcn -->
<g id="node3" class="node">
<title>mulle&#45;dlfcn</title>
<polygon fill="lightgrey" stroke="black" points="98,-108 2,-108 2,-72 98,-72 98,-108"/>
<text text-anchor="middle" x="50" y="-86.3" font-family="Times,serif" font-size="14.00">mulle&#45;dlfcn</text>
</g>
<!-- mulle&#45;atinit&#45;&gt;mulle&#45;dlfcn -->
<g id="edge1" class="edge">
<title>mulle&#45;atinit&#45;&gt;mulle&#45;dlfcn</title>
<path fill="none" stroke="black" d="M97.43,-143.7C89.8,-135.22 80.48,-124.86 72.12,-115.58"/>
<polygon fill="black" stroke="black" points="74.69,-113.2 65.39,-108.1 69.48,-117.88 74.69,-113.2"/>
</g>
<!-- dlfcn&#45;win32 -->
<g id="node8" class="node">
<title>dlfcn&#45;win32</title>
<polygon fill="lightgrey" stroke="black" points="100,-36 0,-36 0,0 100,0 100,-36"/>
<text text-anchor="middle" x="50" y="-14.3" font-family="Times,serif" font-size="14.00">dlfcn&#45;win32</text>
</g>
<!-- mulle&#45;dlfcn&#45;&gt;dlfcn&#45;win32 -->
<g id="edge4" class="edge">
<title>mulle&#45;dlfcn&#45;&gt;dlfcn&#45;win32</title>
<path fill="none" stroke="black" d="M50,-71.7C50,-63.98 50,-54.71 50,-46.11"/>
<polygon fill="black" stroke="black" points="53.5,-46.1 50,-36.1 46.5,-46.1 53.5,-46.1"/>
</g>
<!-- mulle&#45;concurrent -->
<g id="node4" class="node">
<title>mulle&#45;concurrent</title>
<polygon fill="lightgrey" stroke="black" points="255.5,-108 116.5,-108 116.5,-72 255.5,-72 255.5,-108"/>
<text text-anchor="middle" x="186" y="-86.3" font-family="Times,serif" font-size="14.00">mulle&#45;concurrent</text>
</g>
<!-- mulle&#45;aba -->
<g id="node5" class="node">
<title>mulle&#45;aba</title>
<polygon fill="lightgrey" stroke="black" points="229,-36 143,-36 143,0 229,0 229,-36"/>
<text text-anchor="middle" x="186" y="-14.3" font-family="Times,serif" font-size="14.00">mulle&#45;aba</text>
</g>
<!-- mulle&#45;concurrent&#45;&gt;mulle&#45;aba -->
<g id="edge2" class="edge">
<title>mulle&#45;concurrent&#45;&gt;mulle&#45;aba</title>
<path fill="none" stroke="black" d="M186,-71.7C186,-63.98 186,-54.71 186,-46.11"/>
<polygon fill="black" stroke="black" points="189.5,-46.1 186,-36.1 182.5,-46.1 189.5,-46.1"/>
</g>
<!-- mulle&#45;data -->
<g id="node6" class="node">
<title>mulle&#45;data</title>
<polygon fill="lightgrey" stroke="black" points="366,-108 274,-108 274,-72 366,-72 366,-108"/>
<text text-anchor="middle" x="320" y="-86.3" font-family="Times,serif" font-size="14.00">mulle&#45;data</text>
</g>
<!-- src/farmhash -->
<g id="node7" class="node">
<title>src/farmhash</title>
<polygon fill="lightgrey" stroke="black" points="375,-36 265,-36 265,0 375,0 375,-36"/>
<text text-anchor="middle" x="320" y="-14.3" font-family="Times,serif" font-size="14.00">src/farmhash</text>
</g>
<!-- mulle&#45;data&#45;&gt;src/farmhash -->
<g id="edge3" class="edge">
<title>mulle&#45;data&#45;&gt;src/farmhash</title>
<path fill="none" stroke="black" d="M320,-71.7C320,-63.98 320,-54.71 320,-46.11"/>
<polygon fill="black" stroke="black" points="323.5,-46.1 320,-36.1 316.5,-46.1 323.5,-46.1"/>
</g>
<!-- mulle&#45;objc&#45;runtime&#45;&gt;mulle&#45;concurrent -->
<g id="edge5" class="edge">
<title>mulle&#45;objc&#45;runtime&#45;&gt;mulle&#45;concurrent</title>
<path fill="none" stroke="black" d="M263.05,-143.88C249.96,-134.89 233.74,-123.76 219.56,-114.03"/>
<polygon fill="black" stroke="black" points="221.27,-110.96 211.05,-108.19 217.31,-116.73 221.27,-110.96"/>
</g>
<!-- mulle&#45;objc&#45;runtime&#45;&gt;mulle&#45;data -->
<g id="edge6" class="edge">
<title>mulle&#45;objc&#45;runtime&#45;&gt;mulle&#45;data</title>
<path fill="none" stroke="black" d="M295.91,-143.7C299.55,-135.73 303.95,-126.1 307.99,-117.26"/>
<polygon fill="black" stroke="black" points="311.21,-118.65 312.18,-108.1 304.84,-115.74 311.21,-118.65"/>
</g>
<!-- mulle&#45;vararg -->
<g id="node10" class="node">
<title>mulle&#45;vararg</title>
<polygon fill="lightgrey" stroke="black" points="492,-108 384,-108 384,-72 492,-72 492,-108"/>
<text text-anchor="middle" x="438" y="-86.3" font-family="Times,serif" font-size="14.00">mulle&#45;vararg</text>
</g>
<!-- mulle&#45;objc&#45;runtime&#45;&gt;mulle&#45;vararg -->
<g id="edge7" class="edge">
<title>mulle&#45;objc&#45;runtime&#45;&gt;mulle&#45;vararg</title>
<path fill="none" stroke="black" d="M324.69,-143.88C345.02,-134.39 370.47,-122.51 392.1,-112.42"/>
<polygon fill="black" stroke="black" points="393.84,-115.47 401.43,-108.07 390.88,-109.13 393.84,-115.47"/>
</g>
</g>
</svg>
