<?xml version="1.0" encoding="UTF-8" standalone="no"?>
<!DOCTYPE svg PUBLIC "-//W3C//DTD SVG 1.1//EN"
 "http://www.w3.org/Graphics/SVG/1.1/DTD/svg11.dtd">
<!-- Generated by graphviz version 2.43.0 (0)
 -->
<!-- Title: sourcetree Pages: 1 -->
<svg width="512pt" height="116pt"
 viewBox="0.00 0.00 512.00 116.00" xmlns="http://www.w3.org/2000/svg" xmlns:xlink="http://www.w3.org/1999/xlink">
<g id="graph0" class="graph" transform="scale(1 1) rotate(0) translate(4 112)">
<title>sourcetree</title>
<polygon fill="white" stroke="transparent" points="-4,4 -4,-112 508,-112 508,4 -4,4"/>
<!-- mulle&#45;objc&#45;runtime&#45;startup -->
<g id="node1" class="node">
<title>mulle&#45;objc&#45;runtime&#45;startup</title>
<polygon fill="yellow" stroke="black" points="332.5,-108 123.5,-108 123.5,-72 332.5,-72 332.5,-108"/>
<text text-anchor="middle" x="228" y="-86.3" font-family="Times,serif" font-size="14.00">mulle&#45;objc&#45;runtime&#45;startup</text>
</g>
<!-- mulle&#45;atexit -->
<g id="node2" class="node">
<title>mulle&#45;atexit</title>
<polygon fill="lightgrey" stroke="black" points="102,-36 0,-36 0,0 102,0 102,-36"/>
<text text-anchor="middle" x="51" y="-14.3" font-family="Times,serif" font-size="14.00">mulle&#45;atexit</text>
</g>
<!-- mulle&#45;objc&#45;runtime&#45;startup&#45;&gt;mulle&#45;atexit -->
<g id="edge1" class="edge">
<title>mulle&#45;objc&#45;runtime&#45;startup&#45;&gt;mulle&#45;atexit</title>
<path fill="none" stroke="black" d="M184.7,-71.88C160.29,-62.22 129.6,-50.09 103.79,-39.88"/>
<polygon fill="black" stroke="black" points="104.74,-36.49 94.16,-36.07 102.17,-43 104.74,-36.49"/>
</g>
<!-- mulle&#45;atinit -->
<g id="node3" class="node">
<title>mulle&#45;atinit</title>
<polygon fill="lightgrey" stroke="black" points="219.5,-36 120.5,-36 120.5,0 219.5,0 219.5,-36"/>
<text text-anchor="middle" x="170" y="-14.3" font-family="Times,serif" font-size="14.00">mulle&#45;atinit</text>
</g>
<!-- mulle&#45;objc&#45;runtime&#45;startup&#45;&gt;mulle&#45;atinit -->
<g id="edge2" class="edge">
<title>mulle&#45;objc&#45;runtime&#45;startup&#45;&gt;mulle&#45;atinit</title>
<path fill="none" stroke="black" d="M213.66,-71.7C206.71,-63.3 198.23,-53.07 190.6,-43.86"/>
<polygon fill="black" stroke="black" points="193.25,-41.57 184.17,-36.1 187.86,-46.04 193.25,-41.57"/>
</g>
<!-- mulle&#45;dlfcn -->
<g id="node4" class="node">
<title>mulle&#45;dlfcn</title>
<polygon fill="lightgrey" stroke="black" points="334,-36 238,-36 238,0 334,0 334,-36"/>
<text text-anchor="middle" x="286" y="-14.3" font-family="Times,serif" font-size="14.00">mulle&#45;dlfcn</text>
</g>
<!-- mulle&#45;objc&#45;runtime&#45;startup&#45;&gt;mulle&#45;dlfcn -->
<g id="edge3" class="edge">
<title>mulle&#45;objc&#45;runtime&#45;startup&#45;&gt;mulle&#45;dlfcn</title>
<path fill="none" stroke="black" d="M242.34,-71.7C249.29,-63.3 257.77,-53.07 265.4,-43.86"/>
<polygon fill="black" stroke="black" points="268.14,-46.04 271.83,-36.1 262.75,-41.57 268.14,-46.04"/>
</g>
<!-- mulle&#45;objc&#45;runtime -->
<g id="node5" class="node">
<title>mulle&#45;objc&#45;runtime</title>
<polygon fill="lightgrey" stroke="black" points="504,-36 352,-36 352,0 504,0 504,-36"/>
<text text-anchor="middle" x="428" y="-14.3" font-family="Times,serif" font-size="14.00">mulle&#45;objc&#45;runtime</text>
</g>
<!-- mulle&#45;objc&#45;runtime&#45;startup&#45;&gt;mulle&#45;objc&#45;runtime -->
<g id="edge4" class="edge">
<title>mulle&#45;objc&#45;runtime&#45;startup&#45;&gt;mulle&#45;objc&#45;runtime</title>
<path fill="none" stroke="black" d="M276.67,-71.97C304.61,-62.19 339.9,-49.84 369.36,-39.52"/>
<polygon fill="black" stroke="black" points="370.83,-42.72 379.11,-36.11 368.52,-36.11 370.83,-42.72"/>
</g>
</g>
</svg>
