<?xml version="1.0" encoding="UTF-8" standalone="no"?>
<!DOCTYPE svg PUBLIC "-//W3C//DTD SVG 1.1//EN"
 "http://www.w3.org/Graphics/SVG/1.1/DTD/svg11.dtd">
<!-- Generated by graphviz version 2.43.0 (0)
 -->
<!-- Title: sourcetree Pages: 1 -->
<svg width="508pt" height="116pt"
 viewBox="0.00 0.00 508.00 116.00" xmlns="http://www.w3.org/2000/svg" xmlns:xlink="http://www.w3.org/1999/xlink">
<g id="graph0" class="graph" transform="scale(1 1) rotate(0) translate(4 112)">
<title>sourcetree</title>
<polygon fill="white" stroke="transparent" points="-4,4 -4,-112 504,-112 504,4 -4,4"/>
<!-- mulle&#45;objc&#45;runtime&#45;startup -->
<g id="node1" class="node">
<title>mulle&#45;objc&#45;runtime&#45;startup</title>
<polygon fill="yellow" stroke="black" points="331.5,-108 122.5,-108 122.5,-72 331.5,-72 331.5,-108"/>
<text text-anchor="middle" x="227" y="-86.3" font-family="Times,serif" font-size="14.00">mulle&#45;objc&#45;runtime&#45;startup</text>
</g>
<!-- mulle&#45;atexit -->
<g id="node2" class="node">
<title>mulle&#45;atexit</title>
<g id="a_node2"><a xlink:href="https://github.com/mulle-core/mulle-atexit" xlink:title="mulle&#45;atexit">
<polygon fill="lightgrey" stroke="black" points="102,-36 0,-36 0,0 102,0 102,-36"/>
<text text-anchor="middle" x="51" y="-14.3" font-family="Times,serif" font-size="14.00">mulle&#45;atexit</text>
</a>
</g>
</g>
<!-- mulle&#45;objc&#45;runtime&#45;startup&#45;&gt;mulle&#45;atexit -->
<g id="edge1" class="edge">
<title>mulle&#45;objc&#45;runtime&#45;startup&#45;&gt;mulle&#45;atexit</title>
<path fill="none" stroke="black" d="M183.95,-71.88C159.67,-62.22 129.16,-50.09 103.49,-39.88"/>
<polygon fill="black" stroke="black" points="104.5,-36.51 93.91,-36.07 101.91,-43.02 104.5,-36.51"/>
</g>
<!-- mulle&#45;atinit -->
<g id="node3" class="node">
<title>mulle&#45;atinit</title>
<g id="a_node3"><a xlink:href="https://github.com/mulle-core/mulle-atinit" xlink:title="mulle&#45;atinit">
<polygon fill="lightgrey" stroke="black" points="219.5,-36 120.5,-36 120.5,0 219.5,0 219.5,-36"/>
<text text-anchor="middle" x="170" y="-14.3" font-family="Times,serif" font-size="14.00">mulle&#45;atinit</text>
</a>
</g>
</g>
<!-- mulle&#45;objc&#45;runtime&#45;startup&#45;&gt;mulle&#45;atinit -->
<g id="edge2" class="edge">
<title>mulle&#45;objc&#45;runtime&#45;startup&#45;&gt;mulle&#45;atinit</title>
<path fill="none" stroke="black" d="M212.91,-71.7C206.08,-63.3 197.74,-53.07 190.24,-43.86"/>
<polygon fill="black" stroke="black" points="192.96,-41.65 183.93,-36.1 187.53,-46.07 192.96,-41.65"/>
</g>
<!-- mulle&#45;core -->
<g id="node4" class="node">
<title>mulle&#45;core</title>
<g id="a_node4"><a xlink:href="https://github.com/mulle-core/mulle-core" xlink:title="mulle&#45;core">
<polygon fill="lightgrey" stroke="black" points="330,-36 238,-36 238,0 330,0 330,-36"/>
<text text-anchor="middle" x="284" y="-14.3" font-family="Times,serif" font-size="14.00">mulle&#45;core</text>
</a>
</g>
</g>
<!-- mulle&#45;objc&#45;runtime&#45;startup&#45;&gt;mulle&#45;core -->
<g id="edge3" class="edge">
<title>mulle&#45;objc&#45;runtime&#45;startup&#45;&gt;mulle&#45;core</title>
<path fill="none" stroke="black" d="M241.09,-71.7C247.92,-63.3 256.26,-53.07 263.76,-43.86"/>
<polygon fill="black" stroke="black" points="266.47,-46.07 270.07,-36.1 261.04,-41.65 266.47,-46.07"/>
</g>
<!-- mulle&#45;objc&#45;runtime -->
<g id="node5" class="node">
<title>mulle&#45;objc&#45;runtime</title>
<g id="a_node5"><a xlink:href="https://github.com/mulle-objc/mulle-objc-runtime" xlink:title="mulle&#45;objc&#45;runtime">
<polygon fill="lightgrey" stroke="black" points="500,-36 348,-36 348,0 500,0 500,-36"/>
<text text-anchor="middle" x="424" y="-14.3" font-family="Times,serif" font-size="14.00">mulle&#45;objc&#45;runtime</text>
</a>
</g>
</g>
<!-- mulle&#45;objc&#45;runtime&#45;startup&#45;&gt;mulle&#45;objc&#45;runtime -->
<g id="edge4" class="edge">
<title>mulle&#45;objc&#45;runtime&#45;startup&#45;&gt;mulle&#45;objc&#45;runtime</title>
<path fill="none" stroke="black" d="M274.94,-71.97C302.47,-62.19 337.22,-49.84 366.24,-39.52"/>
<polygon fill="black" stroke="black" points="367.59,-42.76 375.85,-36.11 365.25,-36.16 367.59,-42.76"/>
</g>
</g>
</svg>
