<?xml version="1.0" encoding="UTF-8" standalone="no"?>
<!DOCTYPE svg PUBLIC "-//W3C//DTD SVG 1.1//EN"
 "http://www.w3.org/Graphics/SVG/1.1/DTD/svg11.dtd">
<!-- Generated by graphviz version 2.43.0 (0)
 -->
<!-- Title: sourcetree Pages: 1 -->
<svg width="398pt" height="188pt"
 viewBox="0.00 0.00 398.00 188.00" xmlns="http://www.w3.org/2000/svg" xmlns:xlink="http://www.w3.org/1999/xlink">
<g id="graph0" class="graph" transform="scale(1 1) rotate(0) translate(4 184)">
<title>sourcetree</title>
<polygon fill="white" stroke="transparent" points="-4,4 -4,-184 394,-184 394,4 -4,4"/>
<!-- mulle&#45;objc&#45;runtime&#45;startup -->
<g id="node1" class="node">
<title>mulle&#45;objc&#45;runtime&#45;startup</title>
<polygon fill="yellow" stroke="black" points="274.5,-180 65.5,-180 65.5,-144 274.5,-144 274.5,-180"/>
<text text-anchor="middle" x="170" y="-158.3" font-family="Times,serif" font-size="14.00">mulle&#45;objc&#45;runtime&#45;startup</text>
</g>
<!-- mulle&#45;atexit -->
<g id="node2" class="node">
<title>mulle&#45;atexit</title>
<g id="a_node2"><a xlink:href="https://github.com/mulle-core/mulle-atexit" xlink:title="mulle&#45;atexit">
<polygon fill="lightgrey" stroke="black" points="102,-108 0,-108 0,-72 102,-72 102,-108"/>
<text text-anchor="middle" x="51" y="-86.3" font-family="Times,serif" font-size="14.00">mulle&#45;atexit</text>
</a>
</g>
</g>
<!-- mulle&#45;objc&#45;runtime&#45;startup&#45;&gt;mulle&#45;atexit -->
<g id="edge2" class="edge">
<title>mulle&#45;objc&#45;runtime&#45;startup&#45;&gt;mulle&#45;atexit</title>
<path fill="none" stroke="black" d="M140.89,-143.88C125.33,-134.72 105.98,-123.34 89.22,-113.48"/>
<polygon fill="black" stroke="black" points="90.62,-110.24 80.22,-108.19 87.07,-116.28 90.62,-110.24"/>
</g>
<!-- mulle&#45;atinit -->
<g id="node3" class="node">
<title>mulle&#45;atinit</title>
<g id="a_node3"><a xlink:href="https://github.com/mulle-core/mulle-atinit" xlink:title="mulle&#45;atinit">
<polygon fill="lightgrey" stroke="black" points="219.5,-108 120.5,-108 120.5,-72 219.5,-72 219.5,-108"/>
<text text-anchor="middle" x="170" y="-86.3" font-family="Times,serif" font-size="14.00">mulle&#45;atinit</text>
</a>
</g>
</g>
<!-- mulle&#45;objc&#45;runtime&#45;startup&#45;&gt;mulle&#45;atinit -->
<g id="edge3" class="edge">
<title>mulle&#45;objc&#45;runtime&#45;startup&#45;&gt;mulle&#45;atinit</title>
<path fill="none" stroke="black" d="M170,-143.7C170,-135.98 170,-126.71 170,-118.11"/>
<polygon fill="black" stroke="black" points="173.5,-118.1 170,-108.1 166.5,-118.1 173.5,-118.1"/>
</g>
<!-- mulle&#45;objc&#45;runtime -->
<g id="node5" class="node">
<title>mulle&#45;objc&#45;runtime</title>
<g id="a_node5"><a xlink:href="https://github.com/mulle-objc/mulle-objc-runtime" xlink:title="mulle&#45;objc&#45;runtime">
<polygon fill="lightgrey" stroke="black" points="390,-108 238,-108 238,-72 390,-72 390,-108"/>
<text text-anchor="middle" x="314" y="-86.3" font-family="Times,serif" font-size="14.00">mulle&#45;objc&#45;runtime</text>
</a>
</g>
</g>
<!-- mulle&#45;objc&#45;runtime&#45;startup&#45;&gt;mulle&#45;objc&#45;runtime -->
<g id="edge4" class="edge">
<title>mulle&#45;objc&#45;runtime&#45;startup&#45;&gt;mulle&#45;objc&#45;runtime</title>
<path fill="none" stroke="black" d="M205.23,-143.88C224.58,-134.47 248.77,-122.71 269.43,-112.67"/>
<polygon fill="black" stroke="black" points="271.17,-115.71 278.64,-108.19 268.11,-109.41 271.17,-115.71"/>
</g>
<!-- mulle&#45;core -->
<g id="node4" class="node">
<title>mulle&#45;core</title>
<g id="a_node4"><a xlink:href="https://github.com/mulle-core/mulle-core" xlink:title="mulle&#45;core">
<polygon fill="lightgrey" stroke="black" points="360,-36 268,-36 268,0 360,0 360,-36"/>
<text text-anchor="middle" x="314" y="-14.3" font-family="Times,serif" font-size="14.00">mulle&#45;core</text>
</a>
</g>
</g>
<!-- mulle&#45;objc&#45;runtime&#45;&gt;mulle&#45;core -->
<g id="edge1" class="edge">
<title>mulle&#45;objc&#45;runtime&#45;&gt;mulle&#45;core</title>
<path fill="none" stroke="black" d="M314,-71.7C314,-63.98 314,-54.71 314,-46.11"/>
<polygon fill="black" stroke="black" points="317.5,-46.1 314,-36.1 310.5,-46.1 317.5,-46.1"/>
</g>
</g>
</svg>
